<?xml version="1.0" standalone="no"?>
<!DOCTYPE svg PUBLIC "-//W3C//DTD SVG 20010904//EN"
 "http://www.w3.org/TR/2001/REC-SVG-20010904/DTD/svg10.dtd">
<svg version="1.0" xmlns="http://www.w3.org/2000/svg"
 width="1500.000000pt" height="1500.000000pt" viewBox="0 0 1500.000000 1500.000000"
 preserveAspectRatio="xMidYMid meet">

<g transform="translate(0.000000,1500.000000) scale(0.100000,-0.100000)"
fill="#000000" stroke="none">
<path d="M7165 13579 c-693 -44 -1386 -234 -2011 -553 -488 -249 -896 -548
-1300 -951 -259 -259 -459 -502 -652 -791 -484 -725 -773 -1574 -842 -2463
-13 -173 -13 -589 0 -762 76 -983 424 -1915 1006 -2694 215 -288 549 -643 809
-860 567 -473 1233 -827 1919 -1020 1265 -355 2628 -217 3773 380 484 253 887
548 1268 930 416 415 720 836 981 1357 444 886 619 1912 498 2913 -139 1157
-676 2242 -1513 3058 -1055 1027 -2464 1549 -3936 1456z m840 -483 c152 -17
318 -43 465 -76 52 -11 96 -20 98 -20 2 0 -6 -13 -17 -29 -33 -46 -89 -170
-112 -246 -29 -100 -35 -265 -14 -385 28 -167 35 -223 30 -240 -5 -16 -29 -18
-233 -23 -191 -4 -245 -9 -342 -30 -218 -46 -357 -112 -457 -213 -91 -93 -118
-168 -142 -389 -5 -49 -19 -116 -31 -147 -21 -56 -23 -58 -100 -97 -158 -79
-216 -133 -281 -263 -53 -105 -68 -147 -79 -226 -17 -124 17 -229 105 -318
132 -134 327 -165 913 -145 568 19 806 -16 954 -139 59 -49 91 -127 96 -231 4
-84 3 -88 -21 -103 -64 -43 -181 -47 -542 -21 -291 21 -312 24 -510 84 -199
59 -332 92 -505 123 -107 19 -159 22 -360 22 -218 0 -244 -2 -364 -27 -333
-71 -601 -228 -828 -485 -37 -42 -66 -78 -64 -80 2 -2 17 3 33 11 62 32 218
77 304 88 102 12 206 2 346 -33 l81 -20 79 30 c134 51 211 63 404 63 209 0
405 -36 721 -130 92 -28 203 -57 246 -65 192 -36 755 -72 894 -56 181 21 321
85 420 192 108 117 146 237 135 428 -12 210 -76 366 -202 495 -147 150 -300
223 -585 278 -110 21 -138 22 -682 22 -311 0 -570 3 -574 7 -13 14 19 38 110
85 153 79 246 193 305 373 22 69 51 223 51 272 0 16 5 38 10 49 38 70 307 121
620 117 209 -2 303 26 405 123 138 130 174 332 111 623 -42 192 -24 277 84
398 79 89 75 89 241 23 268 -106 582 -269 827 -429 534 -348 990 -801 1347
-1336 232 -348 393 -670 531 -1057 l44 -123 -110 0 c-140 0 -280 -27 -469 -90
l-146 -49 -25 23 c-42 39 -129 95 -206 131 -197 94 -454 117 -615 56 -160 -61
-299 -221 -344 -396 -31 -121 -15 -236 56 -402 22 -52 37 -98 34 -102 -11 -10
-112 -3 -136 10 -12 6 -46 31 -75 54 -147 120 -351 157 -491 89 -69 -33 -146
-118 -173 -191 -44 -118 -48 -295 -10 -475 47 -220 168 -418 331 -544 66 -51
187 -117 299 -164 41 -18 79 -36 84 -40 19 -18 -109 -208 -342 -508 -105 -133
-166 -227 -218 -332 -91 -186 -125 -323 -149 -615 -14 -174 -38 -370 -51 -420
-20 -77 -65 -151 -167 -274 -208 -249 -583 -531 -707 -531 -37 0 -69 23 -118
84 -91 112 -144 226 -194 416 -26 99 -31 138 -35 287 l-6 173 -46 0 c-25 0
-100 -7 -166 -15 -65 -8 -145 -15 -177 -15 l-58 0 0 -73 c0 -97 26 -303 50
-398 89 -350 258 -633 453 -760 98 -64 173 -84 307 -83 103 0 125 4 210 33
155 53 241 106 490 305 335 268 565 572 630 834 22 87 44 254 60 452 29 345
87 483 329 785 142 176 310 431 395 601 73 146 66 265 -20 381 -39 52 -100 87
-259 148 -210 81 -267 109 -329 165 -73 67 -132 182 -151 292 l-6 37 58 -35
c95 -57 170 -76 323 -81 105 -4 150 -2 200 11 151 38 282 132 334 239 56 115
40 248 -54 445 -66 137 -66 174 -4 213 40 24 95 21 199 -13 93 -31 114 -45
196 -128 95 -97 139 -115 268 -108 70 5 123 18 286 71 281 92 391 104 487 56
73 -37 139 -147 157 -260 36 -226 45 -362 45 -684 0 -353 -9 -477 -60 -778
-176 -1045 -719 -2011 -1534 -2730 -625 -551 -1421 -935 -2237 -1081 l-131
-23 -139 145 c-219 231 -387 359 -618 475 -233 116 -446 174 -720 197 -427 36
-937 -84 -1331 -314 l-61 -35 -159 90 c-310 177 -611 393 -845 607 l-57 52 67
67 c108 111 164 241 179 421 5 53 5 133 1 177 -22 228 -22 287 0 414 13 79 40
183 75 285 76 221 86 265 93 391 7 131 -10 234 -56 350 -65 162 -168 283 -469
553 -192 172 -246 233 -291 325 -42 85 -51 179 -51 532 0 327 -4 357 -69 490
-71 145 -217 269 -413 349 -95 39 -287 89 -385 101 -37 4 -63 12 -63 18 0 19
47 190 87 320 l37 119 35 -9 c20 -4 77 -8 126 -8 220 2 399 121 727 486 112
125 182 170 503 329 290 144 396 215 493 330 77 92 119 164 153 262 49 145 59
284 35 463 -51 365 -70 474 -107 603 -6 19 141 107 361 218 398 199 794 336
1210 418 96 19 197 37 224 41 l49 7 -6 -141 c-4 -86 -12 -154 -21 -175 -17
-40 -79 -80 -197 -126 -115 -44 -443 -218 -550 -291 -227 -155 -341 -328 -326
-494 8 -87 32 -139 84 -185 55 -48 100 -64 169 -58 111 9 203 102 212 214 4
53 6 56 68 109 103 87 234 157 524 281 164 69 246 119 323 195 126 126 167
256 167 533 0 90 3 166 8 171 11 12 541 -2 697 -19z m-3375 -1130 c5 -54 15
-129 21 -165 15 -97 13 -242 -5 -304 -39 -133 -103 -186 -406 -335 -383 -188
-512 -276 -668 -454 -136 -155 -322 -330 -322 -301 0 16 97 209 169 338 265
474 632 914 1058 1270 l128 106 7 -28 c4 -15 12 -73 18 -127z m-1595 -2966
c163 -32 273 -87 320 -159 l27 -39 3 -329 c1 -180 8 -362 14 -403 45 -299 168
-484 516 -776 140 -118 249 -230 288 -296 39 -67 61 -160 53 -228 -4 -30 -33
-134 -65 -230 -71 -208 -75 -224 -103 -360 -23 -117 -28 -290 -14 -495 7 -101
6 -130 -8 -177 -19 -68 -49 -104 -92 -113 -28 -5 -36 -1 -74 42 -23 26 -95
119 -160 205 -506 674 -812 1456 -907 2318 -22 199 -24 712 -4 915 7 77 15
143 18 147 5 9 70 2 188 -22z m3840 -4844 c189 -35 399 -123 565 -237 103 -71
188 -144 178 -155 -10 -10 -564 13 -713 31 -161 18 -278 39 -475 85 -187 43
-516 148 -503 160 4 5 53 24 109 43 100 35 249 69 379 86 99 14 353 6 460 -13z"/>
<path d="M5950 9001 c-70 -22 -154 -76 -202 -129 -94 -105 -139 -282 -107
-422 9 -38 395 -1188 504 -1500 62 -177 156 -278 302 -325 74 -24 236 -17 313
13 69 27 145 85 185 139 16 23 35 42 40 42 6 0 81 -62 167 -138 167 -146 235
-189 347 -217 105 -26 237 -1 340 66 25 16 152 136 282 267 288 292 294 301
294 483 0 96 -4 124 -23 172 -42 105 -95 170 -237 293 -74 64 -135 119 -135
124 0 4 12 18 26 32 67 63 134 229 134 333 0 58 -31 164 -65 222 -41 69 -115
138 -188 173 -38 19 -116 42 -202 60 -1778 372 -1657 350 -1775 312z m960
-611 c426 -88 783 -164 793 -168 13 -5 -56 -41 -248 -128 l-266 -121 63 -55
c67 -58 484 -414 630 -537 l87 -74 -99 -106 c-54 -58 -139 -146 -189 -195
l-90 -89 -68 58 c-388 332 -703 597 -710 597 -6 0 -127 -276 -208 -476 -9 -21
-18 -37 -20 -34 -2 2 -112 334 -245 738 -132 404 -243 741 -246 749 -3 9 2 12
18 8 13 -3 372 -78 798 -167z"/>
<path d="M10970 7274 c-60 -26 -102 -65 -127 -120 -21 -46 -23 -65 -21 -146 3
-87 1 -98 -28 -159 -84 -177 -226 -342 -339 -394 -38 -18 -83 -45 -99 -61 -89
-90 -88 -235 2 -315 73 -64 164 -76 274 -36 94 34 171 89 283 201 152 153 268
338 337 539 28 81 32 105 32 202 1 120 -13 167 -67 231 -56 66 -168 92 -247
58z"/>
<path d="M530 11930 c-129 -34 -214 -83 -315 -185 -97 -97 -143 -170 -187
-300 l-23 -70 -3 -4165 c-2 -2751 1 -4191 7 -4242 41 -308 257 -538 567 -602
68 -14 367 -16 2855 -16 l2779 0 0 -235 0 -235 -601 0 c-432 0 -613 -3 -641
-12 -55 -16 -123 -79 -143 -133 -42 -109 4 -235 104 -287 l53 -28 2517 0
c2419 0 2518 1 2556 19 179 82 180 334 1 417 l-51 24 -607 0 -608 0 0 235 0
235 2774 0 c3022 0 2844 -3 2993 56 178 71 309 200 386 381 55 131 52 -143 52
4373 0 3982 -1 4188 -18 4255 -54 214 -211 398 -414 483 -126 53 -81 52 -1425
52 l-1248 0 122 -162 c66 -90 141 -193 166 -230 l45 -68 1047 0 c1168 0 1117
3 1186 -68 20 -20 45 -55 55 -77 18 -39 19 -179 19 -4195 0 -4026 -1 -4156
-19 -4195 -23 -49 -74 -99 -123 -119 -34 -14 -722 -16 -6890 -16 -6654 0
-6854 1 -6893 19 -49 23 -99 74 -119 123 -14 34 -16 461 -16 4195 l0 4158 30
52 c16 28 43 61 60 73 72 51 49 50 1170 50 l1047 0 45 68 c25 37 100 140 166
230 l122 162 -1253 -1 c-1205 0 -1255 -1 -1327 -19z m7790 -9815 l0 -235 -820
0 -820 0 0 235 0 235 820 0 820 0 0 -235z"/>
</g>
</svg>
