<?xml version="1.0" standalone="no"?>
<!DOCTYPE svg PUBLIC "-//W3C//DTD SVG 20010904//EN"
 "http://www.w3.org/TR/2001/REC-SVG-20010904/DTD/svg10.dtd">
<svg version="1.0" xmlns="http://www.w3.org/2000/svg"
 width="1500.000000pt" height="1500.000000pt" viewBox="0 0 1500.000000 1500.000000"
 preserveAspectRatio="xMidYMid meet">

<g transform="translate(0.000000,1500.000000) scale(0.100000,-0.100000)"
fill="#000000" stroke="none">
<path d="M7165 14989 c-1185 -49 -2351 -388 -3391 -985 -1383 -792 -2495
-2029 -3138 -3487 -683 -1550 -818 -3306 -381 -4948 341 -1278 1017 -2444
1960 -3382 750 -746 1621 -1309 2625 -1697 657 -254 1427 -422 2160 -471 226
-15 778 -15 990 0 1036 74 1977 331 2888 790 594 300 1134 670 1637 1122 157
141 483 471 621 629 792 906 1352 1976 1639 3127 203 816 267 1671 189 2513
-145 1569 -796 3071 -1842 4255 -159 180 -559 577 -722 716 -289 248 -604 482
-895 665 -1128 707 -2352 1092 -3671 1154 -235 11 -392 11 -669 -1z m-180
-1004 c97 -22 166 -44 390 -127 103 -37 158 -34 320 22 215 75 345 110 467
127 280 39 533 -33 823 -235 172 -120 241 -165 275 -180 28 -13 99 -17 355
-23 221 -5 342 -12 390 -22 306 -66 481 -192 792 -572 124 -152 132 -156 390
-224 228 -60 310 -89 427 -149 256 -131 408 -326 590 -753 75 -176 89 -196
196 -266 426 -279 552 -395 662 -609 84 -163 121 -313 152 -610 26 -243 31
-254 237 -472 244 -258 354 -478 378 -754 11 -132 3 -261 -34 -500 -14 -92
-25 -186 -25 -209 0 -48 48 -175 123 -324 199 -398 220 -694 76 -1055 -17 -41
-67 -151 -112 -245 l-82 -170 1 -100 c0 -62 12 -162 30 -265 24 -139 29 -191
28 -330 0 -147 -3 -176 -28 -265 -55 -202 -139 -339 -386 -625 -69 -80 -136
-158 -148 -175 -27 -37 -45 -124 -67 -315 -64 -571 -213 -797 -723 -1099 -213
-126 -214 -127 -313 -357 -118 -275 -195 -404 -321 -539 -151 -161 -322 -248
-653 -331 -222 -55 -263 -71 -318 -123 -28 -25 -93 -98 -146 -161 -208 -250
-328 -355 -505 -440 -96 -46 -169 -69 -294 -92 -31 -5 -196 -13 -367 -16
l-310 -7 -55 -28 c-30 -16 -96 -60 -147 -98 -191 -144 -360 -233 -523 -276
-81 -22 -118 -25 -260 -27 -195 -1 -236 7 -540 110 -187 64 -198 66 -270 61
-51 -3 -108 -16 -180 -41 -324 -114 -455 -142 -644 -133 -247 11 -417 80 -721
294 -214 150 -191 143 -468 143 -264 1 -388 10 -520 41 -254 60 -415 176 -696
500 -128 147 -177 196 -218 218 -30 15 -127 44 -238 71 -334 79 -542 187 -693
358 -109 124 -180 244 -277 467 -85 195 -123 262 -169 299 -23 18 -104 70
-181 116 -164 98 -291 186 -358 249 -110 103 -226 290 -281 456 -29 86 -55
236 -81 464 -25 220 -26 222 -225 436 -205 218 -302 377 -358 585 -23 86 -26
113 -26 290 -1 167 3 219 27 361 38 234 37 256 -22 408 -59 151 -157 477 -177
593 -20 113 -20 284 1 381 26 123 80 268 170 452 46 94 89 192 96 219 15 59 8
149 -28 355 -22 129 -27 186 -27 326 0 152 3 180 27 269 58 217 129 328 429
673 54 62 104 123 112 135 21 33 32 89 61 314 53 417 123 590 320 790 114 115
174 159 365 269 240 138 252 150 346 369 142 332 258 509 416 633 148 117 271
170 570 248 114 30 224 63 245 74 46 23 135 115 265 271 195 234 325 335 528
410 146 54 217 63 560 69 l315 6 59 28 c33 15 98 56 145 91 155 114 224 158
336 212 233 113 460 137 720 79z"/>
<path d="M6540 13511 c-86 -28 -170 -74 -344 -190 -208 -137 -285 -177 -404
-207 -95 -25 -101 -26 -353 -19 -308 8 -387 -2 -510 -66 -104 -54 -173 -119
-346 -326 -230 -275 -297 -318 -617 -404 -454 -121 -537 -189 -706 -579 -123
-284 -152 -334 -250 -430 -69 -68 -119 -105 -250 -184 -419 -253 -469 -328
-519 -766 -44 -380 -73 -446 -317 -715 -154 -169 -206 -239 -250 -328 -64
-134 -67 -234 -15 -538 40 -236 45 -298 32 -409 -15 -123 -44 -206 -146 -419
-111 -235 -130 -297 -130 -431 0 -136 19 -197 140 -450 172 -358 180 -415 110
-806 -49 -270 -42 -404 25 -541 41 -83 95 -153 246 -319 242 -267 275 -339
314 -693 41 -361 76 -459 211 -587 64 -59 124 -100 319 -218 298 -181 343
-235 501 -615 83 -197 139 -290 220 -365 95 -88 163 -116 559 -230 156 -45
267 -100 347 -171 34 -31 125 -131 202 -224 166 -200 229 -258 336 -311 127
-64 191 -72 510 -64 236 6 278 4 335 -11 105 -27 219 -86 413 -214 276 -180
348 -211 494 -211 107 0 188 17 398 84 212 67 300 86 409 86 101 0 179 -15
346 -69 262 -83 301 -92 417 -98 183 -9 238 12 533 207 332 220 372 231 800
228 234 -2 284 0 337 14 156 43 252 118 447 352 81 96 175 200 209 231 78 72
205 133 357 175 226 61 395 120 459 157 132 78 218 202 331 473 152 363 194
410 568 634 212 127 315 227 366 352 31 78 51 181 76 397 25 209 46 300 93
393 45 89 73 126 193 258 205 226 272 319 306 430 32 102 29 241 -12 461 -50
279 -50 405 1 559 11 33 65 154 120 268 58 121 108 239 119 284 46 181 14 317
-154 653 -31 62 -71 154 -88 204 -29 83 -32 103 -31 207 0 81 10 169 31 295
56 325 53 424 -17 570 -45 93 -86 148 -242 321 -250 277 -280 342 -320 694
-23 210 -39 291 -70 376 -56 151 -132 224 -406 390 -193 118 -278 180 -338
246 -51 56 -128 207 -225 438 -150 358 -258 444 -704 560 -221 58 -329 109
-433 204 -54 49 -241 262 -326 371 -34 44 -154 135 -219 165 -115 54 -188 62
-493 54 -258 -6 -274 -6 -349 15 -110 30 -214 84 -396 206 -266 177 -353 215
-496 215 -100 0 -188 -18 -354 -71 -402 -129 -494 -130 -870 -10 -102 33 -212
64 -244 70 -90 17 -222 13 -286 -8z m1700 -1485 c507 -59 1041 -206 1390 -381
113 -57 200 -169 235 -302 21 -81 22 -1420 1 -1499 -43 -162 -179 -296 -341
-339 -140 -36 -237 -15 -420 94 -338 202 -604 303 -955 363 -152 26 -476 35
-631 19 -544 -59 -1058 -290 -1453 -652 l-59 -54 429 -5 429 -5 78 -37 c131
-63 226 -176 262 -313 22 -86 22 -883 0 -968 -30 -114 -101 -213 -199 -276
-125 -81 -66 -76 -943 -79 l-783 -3 0 -79 0 -79 793 -3 792 -3 78 -37 c90 -43
176 -123 219 -204 55 -103 58 -130 58 -594 0 -464 -3 -492 -58 -593 -37 -69
-127 -157 -195 -190 -112 -54 -137 -57 -567 -57 l-395 -1 70 -64 c117 -108
263 -218 395 -297 160 -96 187 -110 347 -174 407 -163 875 -220 1306 -158 144
21 384 81 512 129 133 49 323 145 464 234 65 40 143 80 179 91 254 79 537 -91
592 -353 7 -37 10 -276 8 -763 l-3 -709 -23 -57 c-13 -32 -41 -81 -63 -110
-75 -100 -162 -153 -404 -246 -974 -373 -2042 -397 -3045 -70 -840 274 -1571
782 -2136 1485 -104 129 -246 335 -348 507 -80 132 -276 520 -276 544 0 8
-122 12 -412 14 -465 4 -463 4 -578 81 -77 51 -145 133 -180 214 l-25 58 -3
464 c-2 403 -1 471 13 520 43 149 168 276 316 322 52 16 93 19 280 19 l219 0
0 80 0 80 -202 0 c-228 0 -298 11 -384 61 -93 53 -150 113 -196 207 l-43 85
-3 465 c-2 404 -1 472 13 521 43 149 168 276 316 322 55 17 96 19 461 19 l399
0 27 63 c228 536 628 1096 1077 1510 767 706 1744 1126 2780 1197 184 12 624
4 785 -14z"/>
</g>
</svg>
