<?xml version="1.0" standalone="no"?>
<!DOCTYPE svg PUBLIC "-//W3C//DTD SVG 20010904//EN"
 "http://www.w3.org/TR/2001/REC-SVG-20010904/DTD/svg10.dtd">
<svg version="1.0" xmlns="http://www.w3.org/2000/svg"
 width="1500.000000pt" height="1500.000000pt" viewBox="0 0 1500.000000 1500.000000"
 preserveAspectRatio="xMidYMid meet">

<g transform="translate(0.000000,1500.000000) scale(0.100000,-0.100000)"
fill="#000000" stroke="none">
<path d="M9550 12801 c-104 -10 -224 -40 -313 -80 -77 -34 -122 -65 -189 -129
-43 -42 -48 -44 -63 -28 -16 16 -28 20 -52 17 -7 -1 -13 5 -13 12 0 8 -15 20
-32 27 -18 7 -49 19 -68 28 -19 8 -55 17 -80 20 -25 3 -72 20 -105 38 -88 48
-180 67 -295 61 -194 -11 -354 -59 -670 -202 -286 -129 -500 -205 -635 -224
-38 -6 -138 -15 -222 -21 -83 -6 -176 -17 -206 -25 -138 -36 -571 -246 -695
-338 -41 -30 -48 -32 -110 -27 -131 8 -286 3 -332 -13 l-45 -15 85 -1 c171 -3
414 -46 600 -108 223 -73 437 -195 755 -428 105 -76 251 -183 325 -237 74 -54
189 -140 254 -191 351 -271 427 -287 941 -197 366 64 529 59 720 -21 184 -76
297 -181 525 -484 215 -286 331 -395 589 -552 253 -155 451 -233 901 -357 352
-97 1017 -340 1305 -477 206 -98 405 -239 576 -409 294 -293 495 -624 627
-1030 91 -281 122 -498 122 -845 0 -421 -37 -660 -135 -890 l-35 -79 108 105
c126 125 224 211 463 411 228 190 352 325 443 478 21 36 55 77 75 91 73 51 98
153 108 437 4 131 2 214 -6 260 -6 37 -18 106 -26 154 l-14 88 40 58 c44 64
172 392 195 502 33 156 11 375 -60 606 -91 294 -139 409 -229 540 -71 104
-116 194 -172 339 -98 251 -266 558 -420 763 -104 140 -286 321 -400 398 -232
158 -415 213 -669 201 -142 -7 -181 -15 -385 -83 l-133 -44 -122 35 c-66 19
-150 44 -186 55 -36 12 -119 37 -185 56 -159 47 -253 92 -315 150 -70 66 -74
75 -55 131 18 51 15 79 -16 203 -27 109 -72 213 -125 286 -68 96 -115 123
-254 144 -36 6 -99 22 -140 37 -69 24 -84 35 -182 132 -86 83 -108 100 -108
83 0 -34 -17 -26 -24 12 -7 38 -60 88 -216 203 -397 293 -695 402 -1020 374z
m-620 -261 c30 -16 49 -29 42 -30 -12 0 -70 28 -102 49 -30 21 7 9 60 -19z
m-2030 -289 c0 -5 -66 -30 -147 -56 -280 -89 -465 -166 -563 -235 -14 -9 -51
-31 -82 -49 -98 -54 -151 -32 -65 28 47 32 192 109 247 131 19 8 37 17 40 20
8 10 189 78 265 101 59 17 273 66 298 68 4 1 7 -3 7 -8z m975 -110 c-12 -21
-240 -144 -385 -209 -248 -110 -384 -159 -617 -218 -153 -39 -308 -35 -266 7
9 9 204 41 266 43 15 1 27 4 27 7 0 4 30 12 68 19 37 7 82 19 100 27 17 7 32
10 32 7 0 -4 6 -2 13 3 6 5 59 27 117 48 58 21 110 41 115 45 6 4 42 19 81 34
39 15 154 64 255 111 188 85 204 92 194 76z m2730 -106 c105 -28 258 -95 310
-134 67 -51 176 -162 169 -173 -3 -5 -1 -15 5 -22 9 -10 -25 -30 -157 -94 -92
-45 -225 -113 -297 -152 -71 -39 -188 -98 -260 -132 -71 -34 -149 -74 -173
-90 -24 -15 -50 -28 -58 -28 -7 0 -14 -4 -14 -9 0 -5 -17 -17 -37 -26 -21 -10
-62 -33 -91 -52 -30 -19 -57 -33 -61 -31 -17 8 -111 117 -104 121 4 2 21 7 36
11 16 4 34 11 40 16 12 10 136 93 237 160 161 106 485 272 705 360 38 16 71
34 73 40 3 8 -3 10 -14 7 -11 -3 -46 -13 -79 -21 -135 -34 -396 -150 -571
-255 -53 -31 -116 -67 -140 -82 -25 -14 -53 -32 -63 -41 -10 -9 -27 -19 -37
-22 -37 -12 -189 -122 -199 -143 -9 -21 -14 -18 -90 56 -78 76 -196 156 -219
148 -6 -3 -18 1 -26 8 -62 54 -305 82 -430 51 -109 -27 -237 -96 -304 -165
-33 -33 -57 -63 -53 -67 3 -4 32 17 64 45 66 60 189 124 281 147 56 14 195 20
247 10 95 -17 201 -66 294 -136 84 -63 349 -319 386 -374 11 -16 29 -39 40
-52 11 -12 29 -35 40 -50 11 -15 30 -40 43 -55 12 -15 22 -31 22 -36 0 -5 32
-59 70 -121 39 -62 70 -115 70 -118 0 -4 20 -37 45 -75 25 -38 45 -72 45 -77
0 -4 11 -21 24 -38 14 -16 26 -33 27 -39 2 -5 15 -30 31 -54 15 -25 28 -50 28
-55 0 -6 14 -29 30 -50 16 -21 27 -43 24 -47 -6 -10 -134 -8 -134 2 0 3 -17
11 -38 17 -37 11 -202 152 -202 173 0 4 -34 52 -76 106 -41 54 -89 117 -107
141 -40 52 -61 78 -95 117 -15 17 -43 50 -62 75 -18 25 -42 53 -52 63 -10 10
-18 21 -18 25 0 6 -22 33 -89 107 -9 11 -31 40 -48 66 -49 71 -197 189 -273
218 -31 12 -119 32 -145 33 -40 2 -133 -13 -173 -28 -58 -22 -87 -40 -131 -80
-55 -51 -30 -57 62 -15 121 56 174 67 252 54 102 -17 178 -61 275 -154 51 -50
72 -75 53 -64 -18 11 -33 23 -33 27 0 4 -3 7 -7 6 -12 -4 -76 23 -95 40 -11 9
-18 11 -18 4 0 -7 -9 -8 -27 -2 -64 20 -178 30 -328 28 -185 -3 -216 4 -269
63 -32 35 -41 59 -37 96 1 6 -3 14 -9 18 -15 9 -12 75 7 131 12 38 36 68 102
134 89 88 262 207 283 194 6 -4 8 -3 5 3 -5 8 236 133 257 133 7 0 68 22 359
131 44 16 83 27 88 23 5 -3 9 0 9 5 0 6 18 11 39 11 22 0 81 11 133 25 51 13
136 28 188 32 128 11 370 -1 445 -22z m734 -221 c52 -34 116 -127 157 -229 38
-94 42 -126 18 -145 -23 -20 -39 4 -53 79 -15 76 -76 196 -138 269 -49 57 -44
66 16 26z m-190 -192 l40 -59 -62 -42 c-34 -23 -125 -84 -202 -135 -196 -131
-285 -197 -279 -208 8 -12 341 164 364 192 3 4 32 24 65 45 33 21 79 51 102
67 l42 29 29 -58 c16 -32 44 -95 62 -140 l32 -83 -52 -47 c-29 -26 -90 -75
-134 -109 -86 -65 -123 -101 -114 -110 10 -10 197 91 218 117 3 4 26 23 52 42
l47 36 6 -37 c4 -20 10 -56 14 -80 9 -42 8 -43 -43 -86 -70 -59 -184 -141
-291 -210 -49 -32 -108 -71 -130 -87 -22 -16 -55 -36 -72 -44 -18 -7 -33 -18
-33 -23 0 -5 -8 -12 -17 -16 -10 -3 -31 -15 -48 -26 -16 -11 -39 -24 -51 -29
-11 -5 -27 -15 -35 -23 -8 -7 -45 -29 -82 -48 -37 -19 -67 -39 -67 -44 0 -5
-3 -6 -7 -3 -3 4 -21 -5 -40 -19 -18 -14 -33 -20 -33 -14 0 6 -18 42 -40 79
-44 74 -46 81 -26 81 7 0 56 30 107 68 106 76 215 144 340 213 84 46 189 116
189 126 0 12 -64 -13 -204 -83 -162 -79 -193 -96 -243 -131 -17 -13 -36 -23
-42 -23 -6 0 -11 -4 -11 -10 0 -5 -7 -10 -15 -10 -7 0 -19 -8 -24 -17 -6 -10
-11 -14 -11 -10 0 5 -29 -12 -65 -37 l-65 -45 -22 42 c-44 82 -49 97 -32 97
23 0 88 36 223 124 69 46 137 89 151 96 14 7 104 67 200 134 170 117 384 305
368 321 -4 4 -49 -26 -100 -67 -102 -82 -136 -105 -378 -263 -91 -59 -166
-112 -168 -116 -2 -5 -12 -9 -23 -9 -10 0 -19 -4 -19 -10 0 -5 -6 -10 -14 -10
-7 0 -25 -11 -39 -24 -14 -13 -28 -22 -30 -20 -4 5 -184 -99 -200 -115 -10
-10 -44 25 -66 67 -6 12 -18 22 -26 22 -8 0 -15 5 -15 12 0 6 3 8 6 5 9 -9 38
8 104 58 30 23 100 67 155 97 142 80 205 121 205 135 0 13 -24 5 -158 -51 -79
-33 -169 -85 -290 -167 -23 -16 -46 -29 -50 -29 -4 0 -15 12 -24 28 -10 15
-33 44 -53 64 -19 20 -35 39 -35 42 0 3 19 18 43 33 23 15 44 30 47 33 9 10
143 80 230 121 141 66 169 81 196 105 14 13 29 24 33 24 4 0 47 24 95 54 47
30 157 93 244 140 86 47 173 96 192 110 19 14 36 25 37 26 1 0 20 -26 42 -58z
m236 -738 c-9 -115 -34 -199 -74 -254 -43 -60 -126 -146 -187 -195 -27 -21
-51 -42 -54 -45 -6 -6 -185 -120 -220 -140 -92 -51 -274 -138 -281 -135 -4 3
-10 18 -13 33 -4 15 -26 58 -50 97 l-44 69 55 29 c31 15 90 52 132 80 42 29
84 56 93 62 228 137 478 316 567 406 42 42 78 77 80 78 2 0 0 -38 -4 -85z
m-165 -435 c-12 -16 -31 -36 -41 -42 -11 -7 -19 -17 -19 -22 0 -21 -96 -104
-194 -169 -98 -65 -254 -140 -316 -153 -53 -10 -29 10 57 47 76 33 198 102
218 124 6 6 42 32 80 58 39 26 106 79 150 117 44 39 81 71 83 71 2 0 -6 -14
-18 -31z m915 -218 c-27 -45 -512 -364 -730 -481 -44 -23 -136 -75 -205 -115
-158 -92 -251 -135 -290 -135 -34 0 -38 10 -12 33 29 26 246 135 260 130 6 -3
12 0 12 7 0 6 20 20 45 31 24 11 47 24 50 29 4 6 10 8 15 5 4 -2 18 3 31 14
20 14 168 102 263 155 12 6 28 16 36 22 8 6 42 26 75 44 62 34 343 205 405
247 36 24 55 30 45 14z m1847 -188 c89 -97 239 -375 242 -450 1 -31 -2 -38
-18 -38 -16 0 -27 20 -56 95 -38 102 -116 253 -186 363 -24 37 -44 70 -44 72
0 15 23 -1 62 -42z m-3375 11 c-3 -3 -12 -4 -19 -1 -8 3 -5 6 6 6 11 1 17 -2
13 -5z m3397 -353 c9 -10 34 -61 56 -112 39 -96 39 -119 1 -119 -13 0 -26 29
-54 118 -20 64 -37 120 -37 125 0 13 17 7 34 -12z m776 -1513 c10 -54 -9 -169
-46 -275 -30 -85 -54 -119 -78 -110 -23 9 -20 32 12 90 28 52 79 231 83 297 5
66 17 65 29 -2z m-156 -200 c-2 -18 -21 -82 -40 -141 -32 -95 -39 -108 -58
-105 -36 5 -21 68 51 215 37 76 53 86 47 31z m76 -958 c0 -43 -28 -108 -72
-167 -49 -67 -82 -90 -103 -73 -23 19 -18 37 19 59 37 23 92 102 121 173 21
50 35 54 35 8z m-110 -51 c0 -12 -17 -43 -37 -69 -21 -26 -43 -56 -49 -66 -10
-15 -16 -17 -30 -8 -10 6 -19 15 -21 21 -4 11 114 143 128 143 5 0 9 -9 9 -21z"/>
<path d="M10529 11871 c-30 -21 -97 -61 -149 -90 -101 -54 -140 -82 -140 -100
0 -24 257 92 363 163 30 20 36 51 11 60 -25 9 -28 8 -85 -33z"/>
<path d="M10105 11629 c-121 -52 -179 -81 -221 -110 -23 -16 -44 -25 -48 -22
-3 4 -6 2 -6 -4 0 -5 -20 -20 -44 -33 -56 -28 -90 -64 -83 -84 11 -28 48 -17
120 36 71 53 106 74 212 129 70 37 155 97 155 110 0 13 -8 11 -85 -22z"/>
<path d="M4514 11498 c-35 -42 -72 -122 -83 -182 -5 -26 -13 -52 -17 -56 -5
-5 -70 -36 -144 -70 -74 -34 -241 -116 -370 -183 -473 -245 -534 -271 -839
-362 -232 -68 -444 -150 -543 -211 -51 -31 -63 -34 -135 -34 -43 0 -109 7
-146 15 -135 28 -208 30 -288 5 -79 -24 -172 -68 -272 -128 -34 -21 -157 -87
-272 -146 -136 -70 -257 -140 -345 -202 -152 -106 -219 -143 -372 -203 -58
-23 -121 -53 -139 -67 -44 -32 -89 -100 -89 -133 0 -16 -21 -54 -54 -98 -119
-158 -276 -450 -330 -615 -125 -383 -92 -829 90 -1183 31 -60 114 -223 183
-360 69 -138 152 -288 183 -335 180 -269 436 -522 783 -775 239 -174 514 -305
857 -409 247 -75 458 -99 668 -77 112 11 476 104 628 160 178 65 343 174 486
320 49 51 123 119 165 153 42 34 164 150 271 258 107 108 300 297 428 421 128
123 282 280 341 349 95 111 205 218 351 344 85 74 435 401 585 546 83 81 178
165 211 188 115 77 294 172 326 172 l31 0 -7 208 c-11 393 -28 556 -81 768
-19 76 -35 150 -35 164 -1 28 -52 241 -68 280 -6 14 -20 49 -31 78 -12 29 -39
91 -61 138 -22 47 -40 87 -40 90 0 2 -20 38 -45 78 -25 41 -45 79 -45 84 0 14
-75 126 -136 202 -68 86 -246 252 -268 249 -5 0 -13 6 -18 15 -9 15 -133 105
-133 96 0 -3 -17 11 -38 30 -21 19 -55 44 -75 55 -20 11 -67 37 -103 57 -74
42 -240 111 -247 103 -3 -3 -11 0 -18 5 -6 6 -16 10 -20 9 -5 -1 -22 3 -39 10
-16 7 -37 10 -47 8 -10 -3 -18 -2 -18 3 0 11 -33 18 -115 26 -51 5 -66 4 -61
-5 7 -11 -17 -9 -62 5 -25 8 -256 34 -299 34 -40 0 -43 2 -43 28 0 15 9 46 20
70 10 23 17 42 15 42 -2 0 -16 -15 -31 -32z m1441 -716 c91 -94 127 -138 152
-187 14 -26 -140 129 -282 284 l-50 55 47 -32 c26 -18 85 -72 133 -120z
m-4389 -1303 c60 -6 159 -22 219 -36 61 -14 148 -34 195 -44 104 -24 300 -119
450 -217 174 -114 485 -435 612 -632 30 -47 65 -94 76 -104 12 -11 22 -25 22
-33 0 -7 9 -13 20 -13 11 0 20 -7 20 -15 0 -9 20 -52 45 -95 25 -44 56 -99 69
-123 40 -70 135 -303 151 -370 18 -72 66 -200 77 -205 5 -2 8 -13 8 -25 0 -12
12 -65 26 -117 35 -126 33 -118 45 -255 10 -118 8 -181 -11 -280 -9 -47 -20
-145 -22 -190 -1 -31 -37 -133 -70 -200 -85 -170 -241 -326 -415 -414 -147
-75 -279 -101 -503 -102 -160 -1 -238 8 -350 40 -36 10 -86 24 -113 30 -54 13
-249 88 -257 100 -3 4 -52 36 -110 70 -109 66 -239 155 -350 241 -36 28 -76
58 -89 68 -31 22 -311 304 -311 314 0 4 -33 53 -74 110 -40 57 -88 128 -105
158 -18 30 -50 84 -72 120 -72 114 -115 202 -169 338 -29 72 -59 136 -67 141
-17 9 -65 171 -84 283 -9 54 -9 83 -2 104 6 17 11 89 12 161 1 170 23 314 67
438 46 129 56 164 58 198 0 15 4 27 8 27 4 0 31 46 60 102 43 82 71 120 144
195 50 51 97 93 105 93 8 0 24 7 35 14 24 17 230 96 250 96 8 0 14 4 14 9 0 5
24 10 53 10 28 1 79 5 112 10 86 12 100 12 221 0z m-993 -436 c-4 -10 -15 -33
-26 -50 -10 -18 -15 -33 -10 -33 4 0 3 -4 -2 -8 -6 -4 -19 -24 -30 -44 -10
-21 -21 -36 -22 -34 -7 7 82 186 93 186 2 0 0 -8 -3 -17z"/>
<path d="M13075 11243 c-193 -41 -313 -84 -367 -131 -51 -44 24 -41 117 5 113
54 267 80 381 63 38 -5 101 -12 139 -14 72 -5 208 -34 280 -59 81 -29 210
-100 309 -170 55 -40 103 -71 107 -70 4 1 41 -34 83 -78 112 -119 160 -204
283 -503 9 -22 18 -35 20 -29 6 16 -73 225 -119 318 -51 103 -107 182 -179
254 -117 117 -215 191 -329 251 -48 25 -195 81 -220 83 -8 1 -18 6 -21 10 -5
7 -89 27 -234 57 -49 10 -223 19 -250 13z"/>
<path d="M8260 10237 c-33 -16 -60 -33 -60 -38 0 -5 -6 -9 -12 -9 -16 -1 -76
-81 -89 -120 -13 -35 -8 -102 7 -107 6 -2 26 27 43 64 49 103 72 127 140 153
82 30 144 25 239 -23 41 -20 80 -41 88 -48 8 -6 17 -9 20 -6 3 3 35 -27 70
-66 94 -106 152 -237 200 -452 10 -44 21 -84 25 -90 3 -5 10 -49 14 -96 10
-126 -15 -178 -107 -225 -59 -30 -131 -38 -233 -26 -94 11 -119 0 -43 -19 80
-21 235 -18 278 5 86 46 131 102 145 179 14 72 -37 397 -74 482 -69 156 -140
264 -227 344 -78 71 -94 81 -185 110 -87 29 -161 25 -239 -12z"/>
<path d="M11475 8619 c-27 -4 -88 -13 -135 -19 -46 -6 -98 -19 -115 -27 -52
-27 -165 -117 -283 -225 -313 -284 -525 -417 -896 -563 -90 -35 -256 -102
-370 -150 -131 -54 -214 -84 -226 -80 -35 11 -274 -153 -520 -356 l-106 -87
-199 -4 c-228 -6 -254 -11 -410 -88 -55 -26 -129 -62 -165 -79 -75 -35 -412
-285 -558 -414 -123 -108 -375 -365 -505 -516 -141 -163 -213 -274 -260 -401
-18 -48 -21 -81 -22 -250 -2 -135 -8 -230 -21 -310 -27 -169 -25 -429 5 -570
46 -216 129 -424 264 -660 159 -276 195 -338 228 -389 20 -31 76 -121 124
-200 121 -199 214 -319 333 -433 104 -99 221 -193 279 -222 17 -9 83 -36 145
-60 62 -24 181 -73 265 -110 297 -128 445 -170 773 -216 141 -20 251 -41 320
-63 97 -30 115 -32 240 -31 117 0 152 5 263 32 282 70 392 138 532 326 320
434 450 650 485 808 12 53 14 55 55 66 23 6 56 23 73 37 30 25 118 157 281
422 103 166 171 258 302 403 158 175 188 213 304 375 139 193 179 240 289 334
146 124 427 339 658 501 l50 36 82 -9 c107 -12 200 -14 257 -4 l46 8 7 82 c3
45 10 116 16 157 5 41 12 181 16 310 10 335 2 392 -95 726 -22 77 -47 183 -56
235 -30 183 -37 215 -70 299 -68 177 -193 388 -305 515 -30 33 -75 94 -101
135 -59 91 -97 142 -170 229 -55 64 -159 162 -181 170 -6 2 -25 16 -41 30 -16
14 -33 25 -38 23 -5 -1 -9 3 -9 8 0 10 -131 98 -137 92 -2 -1 -13 7 -26 19
-36 34 -232 126 -292 136 -153 26 -295 34 -380 22z m685 -219 c0 -5 -2 -10 -4
-10 -3 0 -8 5 -11 10 -3 6 -1 10 4 10 6 0 11 -4 11 -10z m-3948 -2266 c241
-41 495 -145 703 -287 257 -175 541 -427 629 -557 20 -30 56 -82 80 -116 107
-149 304 -492 313 -545 1 -9 11 -37 22 -63 11 -25 20 -47 19 -49 -4 -9 45 -87
56 -87 14 0 52 -119 82 -254 16 -75 16 -80 -1 -109 -15 -25 -18 -52 -17 -161
1 -162 -25 -335 -71 -472 -52 -153 -60 -181 -53 -192 3 -5 -1 -15 -8 -21 -8
-7 -27 -36 -41 -64 -78 -150 -150 -234 -269 -313 -47 -31 -208 -99 -266 -111
-14 -3 -27 -9 -30 -13 -9 -11 -185 -30 -288 -30 -111 0 -268 25 -439 69 -77
20 -113 25 -116 17 -11 -34 -567 291 -567 331 0 6 -46 54 -102 108 -124 118
-265 278 -316 359 -20 32 -56 82 -78 110 -23 29 -47 62 -53 74 -6 12 -18 22
-26 22 -8 0 -15 5 -15 12 0 6 -29 61 -64 122 -75 129 -165 329 -195 436 -34
117 -73 224 -85 235 -7 6 -13 22 -14 38 -1 15 -15 80 -32 144 -45 172 -51 358
-17 543 28 152 66 260 131 370 44 75 178 241 200 249 6 2 27 16 46 31 220 169
542 233 882 174z m1945 -2396 c-3 -8 -6 -5 -6 6 -1 11 2 17 5 13 3 -3 4 -12 1
-19z m0 -50 c-3 -7 -5 -2 -5 12 0 14 2 19 5 13 2 -7 2 -19 0 -25z m-7 -88 c0
-11 -4 -20 -9 -20 -5 0 -7 9 -4 20 3 11 7 20 9 20 2 0 4 -9 4 -20z m-20 -123
c-11 -70 -59 -215 -92 -282 -59 -115 -206 -299 -262 -326 -12 -6 -6 4 14 23
20 18 49 51 65 73 17 22 36 46 43 55 7 8 11 18 10 22 -2 4 5 13 14 20 22 17
90 147 82 159 -3 5 0 9 5 9 6 0 11 6 11 14 0 8 4 16 8 18 10 4 41 82 77 195
17 50 31 90 33 89 1 -2 -2 -33 -8 -69z m-1549 -722 c79 -28 276 -75 356 -84
100 -12 344 -7 404 9 26 6 55 10 65 8 11 -2 -15 -11 -56 -19 -113 -21 -411
-19 -520 5 -88 19 -300 84 -300 92 0 6 3 5 51 -11z"/>
</g>
</svg>
