<?xml version="1.0" standalone="no"?>
<!DOCTYPE svg PUBLIC "-//W3C//DTD SVG 20010904//EN"
 "http://www.w3.org/TR/2001/REC-SVG-20010904/DTD/svg10.dtd">
<svg version="1.0" xmlns="http://www.w3.org/2000/svg"
 width="1500.000000pt" height="1500.000000pt" viewBox="0 0 1500.000000 1500.000000"
 preserveAspectRatio="xMidYMid meet">

<g transform="translate(0.000000,1500.000000) scale(0.100000,-0.100000)"
fill="#000000" stroke="none">
<path d="M6495 14769 c-156 -12 -390 -43 -563 -75 -1569 -289 -2927 -1314
-3645 -2749 -278 -556 -436 -1097 -514 -1752 -25 -217 -25 -757 0 -938 136
-957 618 -2141 1560 -3825 768 -1374 2072 -3359 3243 -4937 111 -149 168 -191
275 -200 124 -12 206 34 311 174 74 96 633 869 717 989 l42 62 -64 83 c-290
378 -489 805 -597 1279 -99 435 -106 929 -20 1370 171 869 683 1635 1425 2129
672 447 1482 633 2285 526 58 -8 131 -19 163 -25 33 -6 61 -9 64 -7 10 11 172
368 259 573 315 743 504 1388 559 1909 48 458 -17 1107 -166 1650 -331 1209
-1086 2245 -2139 2938 -681 448 -1455 723 -2285 813 -177 19 -729 27 -910 13z
m610 -2409 c406 -46 795 -206 1100 -455 1001 -814 1060 -2303 127 -3186 -308
-292 -666 -471 -1100 -551 -158 -29 -512 -32 -673 -5 -304 51 -579 156 -823
314 -141 92 -205 143 -329 262 -687 664 -842 1705 -379 2538 168 304 421 574
707 758 276 178 613 296 935 328 80 8 352 6 435 -3z"/>
</g>
</svg>
