<?xml version="1.0" standalone="no"?>
<!DOCTYPE svg PUBLIC "-//W3C//DTD SVG 20010904//EN"
 "http://www.w3.org/TR/2001/REC-SVG-20010904/DTD/svg10.dtd">
<svg version="1.0" xmlns="http://www.w3.org/2000/svg"
 width="1500.000000pt" height="1500.000000pt" viewBox="0 0 1500.000000 1500.000000"
 preserveAspectRatio="xMidYMid meet">

<g transform="translate(0.000000,1500.000000) scale(0.100000,-0.100000)"
fill="#000000" stroke="none">
<path d="M6769 12296 c-2 -3 -37 -6 -78 -7 -40 -1 -94 -5 -119 -10 -26 -4 -83
-13 -127 -20 -44 -7 -85 -12 -91 -11 -17 3 -543 -87 -665 -114 -40 -9 -90 -19
-109 -21 -19 -2 -42 -7 -50 -10 -8 -3 -19 -7 -25 -7 -27 -4 -117 -21 -295 -56
-107 -21 -229 -43 -270 -50 -41 -6 -122 -20 -180 -30 -58 -10 -161 -28 -230
-40 -178 -31 -429 -79 -470 -91 -19 -5 -64 -14 -100 -19 -139 -21 -453 -89
-464 -100 -15 -17 65 -7 289 36 224 43 654 117 841 144 78 11 183 29 235 41
52 11 155 31 229 44 74 13 178 33 230 44 137 29 603 107 750 126 69 9 157 23
195 31 39 7 79 14 90 14 11 0 32 6 46 14 14 7 63 16 110 19 46 4 131 12 189
18 255 28 512 -15 810 -133 158 -64 318 -118 345 -118 12 0 25 -4 30 -9 12
-10 144 -61 340 -130 192 -68 547 -209 681 -269 123 -56 312 -122 349 -122 13
0 26 -4 29 -9 7 -11 172 -75 286 -112 125 -39 580 -210 690 -259 121 -54 370
-141 382 -134 5 3 29 -4 53 -15 24 -11 106 -41 182 -65 252 -82 316 -104 513
-174 107 -38 245 -90 305 -116 126 -54 292 -107 348 -111 21 -2 43 -7 50 -13
14 -11 96 -38 299 -97 197 -58 393 -127 468 -165 131 -66 174 -133 220 -343
16 -76 30 -142 30 -147 0 -16 -55 -15 -90 3 -19 9 -43 17 -53 17 -20 0 -57 9
-153 36 -29 9 -63 16 -78 18 -14 1 -29 6 -33 9 -3 4 -16 7 -28 7 -11 0 -25 4
-30 9 -6 6 -102 35 -215 67 -113 31 -221 61 -240 66 -19 5 -60 16 -91 23 -31
7 -72 17 -90 23 -19 6 -79 20 -134 32 -55 12 -113 26 -129 31 -15 5 -32 6 -37
3 -5 -2 -21 2 -37 10 -16 8 -32 12 -35 9 -4 -3 -13 0 -21 6 -8 7 -33 13 -55
14 -23 1 -41 4 -41 7 0 12 -306 84 -325 76 -8 -3 -15 -2 -15 3 0 5 -10 11 -22
14 -13 3 -43 13 -68 22 -25 9 -85 27 -135 40 -49 13 -142 37 -205 54 -63 17
-135 36 -160 42 -25 6 -67 17 -95 24 -27 8 -72 17 -100 21 -27 3 -59 11 -70
17 -10 5 -35 11 -55 13 -57 6 -104 15 -125 24 -32 14 -134 32 -145 25 -5 -3
-10 -2 -10 3 0 10 -29 18 -202 57 -65 15 -122 24 -128 20 -5 -3 -10 -1 -10 4
0 6 -8 11 -19 11 -10 0 -34 6 -53 14 -19 8 -75 24 -124 36 -49 11 -105 25
-124 30 -149 39 -254 64 -370 86 -74 14 -149 29 -166 34 -16 6 -52 13 -80 16
-27 3 -60 7 -74 9 -14 2 -48 10 -77 17 -29 8 -66 14 -82 14 -17 -1 -31 2 -31
5 0 6 -48 17 -105 26 -19 2 -57 10 -170 32 -34 6 -52 6 -56 -1 -4 -7 -8 -6
-11 2 -2 7 -15 14 -30 15 -14 2 -34 7 -44 13 -11 5 -59 17 -109 26 -49 9 -119
23 -155 31 -117 25 -284 54 -350 59 -173 16 -225 18 -355 19 -77 1 -149 -2
-160 -7 -11 -4 -37 -10 -59 -11 -21 -2 -50 -8 -65 -14 -14 -5 -66 -19 -116
-31 -49 -12 -97 -25 -105 -28 -25 -8 -42 -12 -109 -22 -68 -11 -192 -39 -306
-69 -38 -11 -95 -24 -125 -31 -60 -13 -113 -28 -230 -60 -114 -33 -143 -39
-151 -34 -4 2 -12 -3 -19 -11 -7 -8 -16 -12 -21 -10 -4 3 -25 -1 -45 -10 -20
-8 -47 -15 -60 -15 -12 0 -26 -5 -29 -11 -4 -6 -13 -8 -21 -5 -7 3 -30 -2 -51
-11 -21 -9 -43 -16 -50 -15 -14 3 -145 -30 -338 -84 -11 -3 -47 -10 -80 -14
-33 -5 -127 -25 -210 -45 -82 -20 -191 -45 -241 -55 -50 -10 -101 -23 -115
-29 -13 -5 -76 -22 -139 -36 -63 -15 -123 -31 -132 -36 -10 -5 -23 -9 -30 -9
-7 0 -26 -7 -42 -15 -16 -9 -37 -15 -45 -14 -9 1 -23 -1 -31 -4 -8 -3 -32 -8
-52 -12 -21 -3 -43 -11 -50 -18 -7 -7 -33 -13 -57 -14 -24 -1 -51 -5 -60 -9
-9 -4 -27 -9 -40 -11 -14 -2 -32 -8 -40 -12 -9 -5 -36 -12 -61 -16 -25 -4 -56
-12 -70 -18 -28 -11 -56 -17 -85 -19 -22 -1 -186 -38 -410 -94 -134 -33 -183
-47 -343 -100 -40 -13 -78 -24 -85 -24 -7 0 -18 -5 -25 -12 -6 -6 -22 -13 -34
-15 -12 -2 -33 -10 -46 -19 -13 -8 -29 -13 -35 -11 -7 2 -21 -1 -32 -6 -11 -6
-26 -12 -34 -13 -27 -5 -71 -27 -71 -36 0 -5 -4 -6 -10 -3 -12 7 -41 -1 -195
-59 -66 -24 -121 -49 -123 -54 -1 -5 -11 -8 -21 -5 -10 3 -22 0 -25 -6 -4 -6
-17 -11 -30 -11 -13 0 -135 -38 -271 -85 -137 -46 -249 -84 -250 -82 -1 1 1
103 6 227 9 275 24 484 46 650 9 69 16 177 17 240 l1 115 -34 3 c-30 3 -33 1
-28 -18 3 -12 2 -32 -3 -44 -10 -22 -38 -398 -45 -606 -5 -123 -11 -272 -21
-480 -3 -58 -8 -107 -12 -111 -4 -3 -36 -16 -72 -29 -36 -13 -69 -27 -75 -31
-5 -4 -27 -10 -47 -14 -21 -4 -42 -13 -49 -21 -6 -8 -19 -14 -28 -14 -9 0 -29
-7 -45 -15 -22 -12 -31 -13 -37 -4 -11 19 -107 514 -125 651 -9 67 -19 131
-23 140 -5 14 -29 8 -186 -51 -200 -75 -259 -103 -356 -167 -122 -81 -177
-159 -224 -319 -40 -139 -41 -186 -6 -395 85 -518 97 -963 50 -1945 -11 -225
-22 -563 -25 -750 -4 -274 -16 -2791 -17 -3555 0 -139 4 -202 16 -253 36 -148
105 -245 212 -298 153 -75 352 -43 682 112 228 107 294 131 828 303 303 98
631 204 730 236 99 32 448 142 775 245 576 180 1232 397 1990 658 201 69 507
172 680 227 913 294 891 287 1080 328 107 22 147 26 275 25 264 -2 731 -67
1260 -174 245 -50 186 -32 1619 -491 136 -43 424 -145 640 -225 538 -200 898
-318 2051 -673 50 -15 191 -60 315 -99 401 -128 655 -185 939 -211 316 -29
547 21 672 144 131 131 164 307 135 741 -21 312 -34 827 -46 1845 -6 454 -15
899 -20 990 -6 91 -26 404 -45 695 -19 292 -39 625 -45 740 -6 116 -23 356
-37 535 -26 331 -34 679 -23 1030 4 134 2 162 -14 210 -77 224 -211 349 -482
448 -126 46 -532 162 -568 162 -5 0 -6 -62 -2 -162 6 -143 -6 -454 -19 -514
-4 -19 -9 -21 -48 -13 -24 4 -54 12 -68 18 -13 5 -87 24 -164 41 -77 18 -148
36 -157 41 -10 5 -27 9 -38 9 -23 0 -25 7 -40 157 -30 312 -129 410 -525 522
-65 18 -212 65 -240 76 -16 7 -57 20 -90 30 -33 10 -89 28 -125 40 -36 13 -69
24 -75 25 -20 5 -41 13 -80 31 -46 20 -418 155 -485 175 -63 18 -198 63 -240
79 -19 7 -57 19 -85 26 -27 6 -54 16 -60 20 -5 5 -19 9 -31 9 -13 0 -25 4 -28
9 -4 5 -25 12 -49 16 -23 4 -44 11 -47 14 -3 4 -82 33 -175 64 -94 31 -191 66
-215 78 -25 12 -76 33 -115 46 -72 24 -105 36 -260 97 -49 19 -135 49 -190 66
-55 17 -111 36 -125 42 -55 23 -67 28 -110 39 -46 12 -67 18 -110 37 -39 17
-74 26 -87 24 -7 -2 -13 1 -13 6 0 5 -19 15 -42 22 -24 7 -52 16 -63 21 -11 5
-33 13 -50 19 -72 22 -196 69 -208 78 -6 5 -57 27 -112 47 -55 21 -134 51
-175 67 -41 16 -88 34 -105 40 -16 6 -34 14 -40 18 -5 4 -41 17 -80 30 -38 12
-74 25 -80 29 -5 5 -32 14 -60 21 -27 7 -67 21 -87 32 -21 10 -41 17 -45 16
-5 0 -21 4 -36 10 -16 7 -34 12 -42 12 -8 0 -17 5 -20 10 -3 6 -17 10 -31 10
-13 0 -24 4 -24 9 0 7 -45 23 -75 25 -5 1 -12 4 -15 8 -6 7 -101 44 -240 92
-36 13 -99 39 -140 58 -184 86 -518 185 -715 212 -57 8 -310 17 -316 12z m386
-1876 c3 -69 12 -262 20 -430 8 -168 19 -368 25 -445 6 -77 13 -178 15 -225 3
-47 9 -152 15 -235 5 -82 14 -283 20 -445 10 -279 21 -458 55 -910 8 -107 17
-327 20 -489 3 -161 12 -363 20 -450 8 -86 15 -203 16 -261 0 -58 5 -110 11
-117 5 -7 13 -170 18 -380 11 -423 17 -572 30 -698 18 -166 11 -320 -14 -312
-14 5 -29 123 -42 342 -4 63 -7 106 -18 255 -8 103 -33 684 -32 770 0 30 -4
123 -8 205 -4 83 -9 188 -11 235 -2 47 -6 108 -9 135 -15 144 -26 359 -32 605
-3 151 -8 304 -10 340 -2 36 -6 115 -9 175 -5 104 -10 191 -20 350 -6 99 -24
527 -30 740 -8 249 -15 413 -29 640 -15 241 -32 804 -26 830 5 21 19 -105 25
-225z m729 -127 c-70 -108 -95 -158 -114 -226 -19 -69 -20 -86 -10 -149 11
-75 7 -108 -14 -108 -26 0 -37 29 -41 99 -6 145 31 253 122 352 58 62 88 79
57 32z m-1769 -115 c36 -43 46 -88 52 -235 5 -128 -11 -375 -27 -418 -5 -14
-32 -31 -77 -49 -37 -15 -90 -37 -117 -48 -26 -11 -88 -32 -138 -48 -49 -16
-95 -33 -101 -38 -7 -5 -30 -14 -52 -20 -39 -10 -159 -53 -200 -71 -27 -12
-104 -41 -108 -40 -2 0 -8 -1 -107 -31 -41 -12 -115 -35 -163 -51 -49 -16 -92
-29 -97 -29 -5 0 -21 -5 -37 -12 -37 -15 -39 -15 -108 -27 -54 -10 -174 -41
-295 -76 -25 -7 -70 -19 -100 -25 -30 -6 -82 -20 -115 -30 -33 -11 -100 -31
-150 -46 -49 -15 -97 -30 -105 -34 -9 -4 -30 -11 -48 -14 -17 -4 -34 -12 -37
-17 -4 -5 -19 -9 -36 -9 -16 0 -29 -5 -29 -10 0 -6 -6 -10 -12 -9 -21 4 -78
-12 -78 -22 0 -5 -8 -8 -17 -6 -20 2 -285 -82 -293 -93 -3 -4 -12 -7 -20 -8
-53 -2 -526 -164 -577 -198 -12 -7 -28 -14 -35 -14 -7 0 -44 -16 -83 -35 -38
-19 -75 -35 -81 -35 -6 0 -23 -9 -38 -21 -14 -11 -26 -17 -26 -14 0 4 -20 -5
-45 -19 -25 -15 -45 -24 -45 -20 0 3 -7 0 -16 -7 -9 -7 -21 -14 -28 -15 -27
-5 -66 -24 -66 -33 0 -5 -8 -9 -18 -8 -16 1 -38 -8 -147 -58 -16 -8 -54 -24
-82 -36 -29 -12 -53 -26 -53 -31 0 -5 -4 -7 -9 -4 -9 6 -28 0 -181 -55 -58
-21 -161 -57 -230 -79 -69 -22 -138 -45 -155 -51 -16 -6 -79 -24 -140 -41 -60
-17 -119 -34 -130 -38 -20 -8 -55 -17 -105 -26 -14 -2 -47 -9 -75 -14 -27 -6
-67 -12 -89 -15 l-39 -5 6 243 c6 252 21 383 57 499 37 122 66 140 392 262
911 339 4506 1446 4609 1419 11 -3 30 -18 44 -35z m1783 -185 c-3 -121 16
-183 77 -255 37 -42 42 -54 34 -70 -6 -11 -15 -18 -22 -15 -16 5 -88 92 -91
110 -1 8 -6 21 -12 28 -33 43 -41 195 -14 267 21 56 29 35 28 -65z m5959 -991
c78 -115 123 -280 126 -464 2 -121 1 -129 -21 -150 -19 -20 -24 -21 -32 -8 -6
8 -7 34 -4 57 22 153 -10 362 -81 526 -39 89 -38 87 -27 87 4 0 21 -21 39 -48z
m-13193 -44 c-4 -18 -8 -57 -8 -85 1 -42 -3 -54 -18 -59 -29 -9 -38 4 -38 53
0 50 34 123 58 123 11 0 13 -7 6 -32z m124 -30 c-46 -68 -57 -104 -51 -161 5
-38 2 -48 -12 -53 -29 -11 -47 23 -40 76 8 66 25 112 49 139 24 27 78 62 85
56 2 -3 -12 -29 -31 -57z m13297 -18 c18 -34 45 -163 70 -328 16 -105 16 -115
1 -130 -28 -28 -44 2 -49 94 -2 45 -7 85 -10 90 -2 5 -8 40 -12 78 -3 38 -12
104 -19 147 -13 83 -7 99 19 49z m-3522 -32 c29 -40 42 -86 46 -155 4 -86 -54
-186 -134 -227 -44 -23 -43 -12 4 39 87 94 105 196 52 290 -21 37 -26 56 -19
68 13 24 24 21 51 -15z m-6738 -174 c-154 -52 -288 -97 -297 -99 -12 -5 -15
-1 -11 14 3 13 12 18 25 16 16 -4 280 76 343 104 25 10 143 48 170 54 74 16
16 -6 -230 -89z m-355 -119 c-46 -18 -64 -17 -25 0 17 8 37 14 45 14 8 0 -1
-7 -20 -14z m9623 -123 c-1 -41 -64 -119 -111 -139 -19 -8 -50 -13 -70 -11
l-37 3 52 27 c64 34 90 60 114 116 14 31 24 42 36 40 13 -3 18 -13 16 -36z
m97 -86 c0 -13 -35 -63 -60 -87 -79 -75 -159 -109 -254 -109 -76 0 -140 15
-130 31 3 5 9 7 13 5 4 -3 48 -1 98 4 105 10 172 38 224 96 70 77 78 84 93 78
9 -3 16 -12 16 -18z m80 -4605 c15 -88 53 -150 114 -186 44 -26 59 -56 36 -70
-25 -15 -133 72 -164 134 -20 38 -29 131 -17 164 6 15 12 27 15 27 2 0 9 -31
16 -69z m-12392 32 c5 -10 12 -36 15 -58 11 -76 45 -172 98 -276 17 -34 28
-63 26 -65 -2 -2 -20 12 -40 31 -41 40 -84 124 -121 239 -29 87 -32 116 -14
134 16 16 26 15 36 -5z m12205 -40 c-4 -21 -8 -66 -8 -100 1 -50 6 -69 27 -99
27 -37 28 -58 2 -68 -23 -9 -51 32 -70 100 -15 55 -15 71 -4 107 26 90 70 138
53 60z m-12054 -125 c34 -76 70 -121 111 -138 36 -15 44 -60 11 -60 -23 0 -98
61 -127 104 -32 46 -51 156 -28 156 3 0 17 -28 33 -62z m13205 -155 c-12 -48
-41 -96 -93 -155 -51 -56 -161 -137 -215 -158 -35 -13 -68 -4 -64 17 3 18 9
22 89 58 83 37 191 134 244 218 34 53 49 60 39 20z m30 -269 c5 -12 -50 -64
-68 -64 -3 0 -24 -13 -46 -29 -44 -32 -148 -77 -156 -68 -11 11 9 29 94 84 48
31 99 66 115 79 28 24 51 23 61 -2z"/>
</g>
</svg>
