<?xml version="1.0" standalone="no"?>
<!DOCTYPE svg PUBLIC "-//W3C//DTD SVG 20010904//EN"
 "http://www.w3.org/TR/2001/REC-SVG-20010904/DTD/svg10.dtd">
<svg version="1.0" xmlns="http://www.w3.org/2000/svg"
 width="1500.000000pt" height="1500.000000pt" viewBox="0 0 1500.000000 1500.000000"
 preserveAspectRatio="xMidYMid meet">

<g transform="translate(0.000000,1500.000000) scale(0.100000,-0.100000)"
fill="#000000" stroke="none">
<path d="M10801 13815 c-137 -30 -252 -79 -368 -155 -63 -42 -369 -342 -1599
-1573 -1362 -1363 -1638 -1633 -2638 -2587 -614 -586 -1120 -1066 -1124 -1068
-5 -1 -21 30 -37 70 -212 551 -556 1093 -1044 1648 -196 223 -694 717 -779
774 -229 152 -486 223 -771 213 -293 -9 -461 -92 -705 -347 -109 -115 -152
-188 -166 -287 -10 -74 4 -174 34 -238 12 -27 144 -250 293 -495 148 -245 294
-490 325 -545 152 -275 265 -596 330 -935 21 -114 22 -124 28 -1695 5 -1107
11 -1599 19 -1645 38 -220 78 -370 136 -516 113 -280 271 -521 472 -715 135
-131 3160 -2833 3271 -2922 735 -590 1808 -584 2517 15 145 123 4115 4103
4169 4179 61 88 129 234 158 339 20 73 23 108 23 250 -1 194 -18 275 -89 425
-58 124 -113 202 -202 290 -377 373 -960 393 -1371 48 l-51 -43 -237 -713
c-136 -408 -246 -721 -257 -733 -55 -61 -177 -97 -276 -82 -183 28 -320 216
-283 386 25 119 12 104 796 892 539 543 753 764 787 815 130 199 188 403 175
624 -26 457 -333 822 -784 933 -132 32 -332 30 -468 -6 -114 -30 -274 -105
-355 -167 -43 -33 -28 -14 65 82 132 136 194 217 249 326 75 147 106 282 106
460 0 269 -97 508 -285 698 -139 141 -280 224 -475 277 -73 20 -108 23 -250
23 -150 -1 -173 -3 -257 -28 -117 -34 -219 -81 -308 -141 -55 -37 174 197
1071 1096 768 769 1155 1164 1184 1207 61 92 125 232 151 336 34 128 33 350 0
480 -26 104 -90 245 -151 336 -94 140 -271 284 -428 350 -140 58 -248 79 -401
78 -75 0 -164 -7 -200 -14z m-1566 -4674 c-217 -653 -239 -713 -268 -737 -61
-52 -114 -69 -212 -69 -107 0 -163 22 -235 95 -74 73 -95 127 -95 240 0 153
-17 131 548 697 270 271 493 490 495 488 2 -2 -102 -323 -233 -714z m1189
-1673 c-172 -516 -243 -717 -258 -730 -12 -9 -46 -29 -76 -45 -48 -25 -66 -28
-145 -28 -79 0 -96 3 -143 28 -70 37 -128 97 -161 166 -22 47 -26 70 -26 141
0 152 -15 133 547 697 270 271 494 491 496 488 2 -2 -103 -324 -234 -717z"/>
</g>
</svg>
