<?xml version="1.0" standalone="no"?>
<!DOCTYPE svg PUBLIC "-//W3C//DTD SVG 20010904//EN"
 "http://www.w3.org/TR/2001/REC-SVG-20010904/DTD/svg10.dtd">
<svg version="1.0" xmlns="http://www.w3.org/2000/svg"
 width="1500.000000pt" height="1500.000000pt" viewBox="0 0 1500.000000 1500.000000"
 preserveAspectRatio="xMidYMid meet">

<g transform="translate(0.000000,1500.000000) scale(0.100000,-0.100000)"
fill="#000000" stroke="none">
<path d="M12506 14922 c-3 -5 -101 -12 -218 -15 -321 -10 -660 -33 -2103 -142
-1611 -121 -1870 -136 -2515 -139 -508 -3 -580 -7 -790 -42 -266 -45 -494
-149 -643 -293 -181 -174 -231 -292 -859 -2011 -982 -2691 -1160 -3195 -1896
-5385 -593 -1764 -601 -1787 -985 -2860 -464 -1296 -644 -1845 -697 -2124 -45
-241 -44 -372 5 -521 13 -41 26 -86 29 -100 14 -66 168 -213 298 -284 136 -75
329 -142 413 -144 11 0 47 -5 80 -10 73 -13 370 -31 560 -34 131 -3 330 5 455
17 80 8 756 26 960 26 96 -1 220 -5 275 -10 55 -6 181 -13 280 -16 209 -7 488
-29 625 -50 52 -8 133 -17 180 -19 208 -12 577 -46 701 -65 78 -12 177 -17
185 -9 3 3 20 2 37 -2 18 -5 91 -11 162 -14 147 -7 388 -23 455 -31 68 -8
1061 -16 1073 -8 5 3 39 8 73 9 83 4 282 39 364 63 158 47 234 85 303 154 50
49 71 77 129 172 63 102 185 486 212 670 37 243 68 409 101 530 76 285 93 351
93 365 -1 8 7 44 16 80 9 36 39 157 67 270 27 113 63 248 79 300 27 88 36 128
45 183 11 62 107 419 170 627 24 80 62 224 85 320 52 213 112 434 140 515 11
33 29 100 40 150 38 181 91 404 131 555 65 244 79 302 84 340 8 71 115 548
145 650 11 36 26 103 33 150 25 149 86 439 131 625 43 175 57 239 62 280 9 80
104 522 135 626 19 68 37 151 44 204 9 80 104 509 141 635 24 86 44 175 49
220 1 14 7 43 13 65 6 22 20 86 31 141 12 56 42 179 67 275 26 96 56 206 66
244 10 39 21 86 23 105 9 68 106 440 156 595 47 149 72 245 65 253 -3 3 -2 10
4 16 5 7 25 75 45 151 42 161 78 278 139 455 61 176 69 201 62 207 -3 4 -2 11
3 17 5 6 28 73 50 148 39 131 107 323 186 527 20 52 37 103 37 115 1 12 5 26
9 31 4 6 25 62 47 125 49 143 127 336 182 455 24 50 55 124 70 165 16 41 56
149 90 240 72 192 133 376 155 474 25 109 23 311 -6 417 -39 147 -79 210 -183
283 -68 49 -112 70 -171 80 -22 4 -47 9 -57 12 -9 3 -19 1 -22 -4z m-3166
-532 c26 -26 25 -60 -1 -94 -66 -84 -229 -73 -229 15 0 68 45 98 148 99 49 0
66 -4 82 -20z m-1297 -177 c-62 -2 -165 -2 -230 0 -65 1 -14 3 112 3 127 0
180 -2 118 -3z m3558 -442 c20 -21 29 -39 29 -62 0 -18 -31 -146 -70 -285 -38
-138 -70 -265 -70 -283 0 -26 23 -55 155 -195 85 -90 155 -168 155 -173 0 -6
-96 -13 -222 -17 -123 -3 -509 -15 -858 -26 -349 -11 -688 -21 -753 -23 l-118
-2 -30 33 c-16 18 -29 43 -29 56 0 24 242 822 259 854 15 28 72 76 108 91 30
12 986 56 1291 60 l124 1 29 -29z m-402 -1302 c35 -12 61 -53 61 -95 0 -15
-34 -149 -76 -298 -54 -195 -74 -279 -69 -302 4 -23 50 -81 160 -204 85 -95
152 -176 149 -181 -3 -5 -67 -9 -142 -9 -75 0 -389 -7 -697 -15 -1184 -30
-2093 -48 -2118 -41 -34 8 -59 46 -59 89 0 48 257 842 290 897 20 34 41 52 82
72 l55 26 910 27 c1164 34 1409 41 1416 43 3 1 20 -3 38 -9z m-3924 -1654 c18
-17 25 -35 25 -62 0 -37 -270 -866 -303 -928 -8 -16 -28 -42 -44 -57 -62 -59
-29 -57 -935 -69 -458 -6 -855 -9 -882 -7 l-50 3 264 185 c173 122 271 197
286 220 13 20 68 160 122 313 55 152 111 294 126 315 15 22 48 51 74 65 l47
26 445 9 c245 5 525 9 623 10 177 2 178 2 202 -23z m582 -1650 c33 -23 46 -75
33 -127 -15 -55 -275 -884 -288 -919 -16 -40 -70 -98 -111 -118 -34 -17 -117
-19 -1536 -24 -1309 -6 -1497 -5 -1480 8 11 8 135 97 275 197 169 122 264 197
282 223 16 23 73 169 131 332 57 160 115 309 129 330 14 22 47 50 76 66 l51
28 768 8 c1361 14 1645 13 1670 -4z m1879 -1810 c40 -7 83 -53 90 -96 4 -24
-21 -127 -85 -359 -50 -178 -91 -340 -91 -360 0 -45 8 -57 183 -285 81 -104
147 -194 147 -199 0 -6 -256 -7 -637 -3 -1842 20 -2539 30 -2560 38 -33 12
-55 53 -55 102 0 62 312 1027 347 1073 37 48 85 82 131 92 40 8 2475 5 2530
-3z m-906 -1791 c440 -6 446 -7 475 -64 24 -46 18 -95 -34 -281 -63 -225 -64
-232 -53 -271 5 -19 82 -134 172 -256 89 -123 160 -225 157 -228 -4 -5 -628 6
-1495 26 -394 9 -414 10 -442 30 -40 28 -56 87 -40 149 27 110 224 749 240
781 26 51 95 109 145 123 11 3 121 4 245 1 124 -2 407 -7 630 -10z"/>
<path d="M10879 13566 c-5 -4 -178 -13 -454 -22 -104 -4 -192 -8 -194 -10 -2
-2 -1 -7 3 -11 10 -10 166 -16 166 -6 0 4 42 8 93 8 262 1 849 15 857 20 33
20 -10 25 -228 25 -131 0 -241 -2 -243 -4z"/>
<path d="M10318 13362 c-81 -1 -138 -7 -138 -12 0 -12 0 -11 63 -16 26 -2 46
0 43 4 -2 4 122 3 276 -1 193 -6 284 -5 291 2 6 6 9 13 6 15 -6 6 -368 12
-541 8z"/>
<path d="M11073 13363 c-42 -3 -63 -8 -63 -16 0 -10 31 -13 125 -11 69 1 128
4 131 7 4 3 3 10 -1 16 -6 11 -55 11 -192 4z"/>
<path d="M10178 13122 c-21 -2 -38 -7 -38 -12 0 -6 122 -10 296 -10 162 0 300
-3 306 -6 5 -3 43 -3 84 1 54 5 74 11 74 21 0 12 -52 14 -342 12 -189 -2 -360
-4 -380 -6z"/>
<path d="M10778 12204 c-7 -7 -724 -23 -1060 -24 -89 0 -108 -3 -108 -15 0
-13 32 -15 233 -15 127 0 320 5 427 10 107 5 290 12 405 16 199 6 263 15 198
28 -27 5 -90 6 -95 0z"/>
<path d="M9123 12172 c-198 -2 -233 -5 -233 -17 0 -12 19 -15 98 -16 102 -1
200 1 242 6 14 2 55 4 93 4 37 1 67 5 67 10 0 15 -27 16 -267 13z"/>
<path d="M10455 11990 c-110 -4 -297 -11 -415 -15 -118 -4 -217 -9 -219 -11
-14 -14 27 -17 161 -15 83 1 155 4 158 6 4 2 152 5 330 6 178 0 330 3 337 6 7
3 13 11 13 17 0 15 -81 16 -365 6z"/>
<path d="M8810 11960 c0 -4 7 -11 16 -14 9 -3 234 -6 500 -6 427 0 484 2 484
15 0 14 -58 15 -500 14 -275 -1 -500 -5 -500 -9z"/>
<path d="M10369 11806 c-5 -6 -80 -14 -132 -15 -26 -1 -37 -5 -34 -13 2 -9 19
-12 53 -8 71 7 171 5 232 -5 45 -7 52 -6 52 8 0 9 -10 19 -22 21 -41 8 -144
17 -149 12z"/>
<path d="M9496 11773 c-2 -2 -166 -4 -365 -5 -198 0 -361 -4 -361 -8 0 -4 7
-10 15 -14 21 -8 1028 -8 1148 0 73 5 97 10 97 21 0 11 -45 13 -265 12 -146
-1 -267 -4 -269 -6z"/>
<path d="M7215 7049 c-4 -6 -4 -13 0 -17 11 -12 1015 -14 1015 -2 0 14 13 13
-325 15 -165 1 -386 5 -492 9 -131 4 -194 2 -198 -5z"/>
<path d="M8240 7037 c0 -21 51 -23 578 -23 354 0 442 3 442 13 0 10 -61 13
-292 13 -161 0 -391 3 -510 7 -194 5 -218 4 -218 -10z"/>
<path d="M7166 6841 c-10 -16 21 -20 141 -20 65 0 244 -5 398 -11 154 -6 321
-11 370 -10 50 0 319 2 599 3 405 2 510 5 514 15 3 10 -98 13 -525 12 -583 -1
-1397 7 -1455 15 -20 3 -39 1 -42 -4z"/>
<path d="M7120 6641 c0 -17 31 -21 163 -21 73 0 193 -2 267 -4 74 -3 294 -8
488 -12 322 -6 352 -5 352 10 0 9 -1 16 -2 17 -2 0 -226 2 -498 4 -272 3 -557
7 -632 10 -80 3 -138 1 -138 -4z"/>
<path d="M8628 6643 c-45 -2 -68 -8 -68 -16 0 -9 37 -13 138 -14 75 -1 152 -3
171 -5 35 -3 54 15 26 26 -22 8 -188 14 -267 9z"/>
<path d="M7040 6400 c0 -12 140 -19 533 -25 296 -5 347 -4 347 8 0 8 -11 17
-25 19 -45 9 -855 7 -855 -2z"/>
<path d="M8258 5262 c-121 -1 -198 -6 -198 -12 0 -6 10 -10 23 -10 12 -1 46
-3 75 -6 28 -2 52 0 52 5 0 5 8 8 18 6 9 -2 200 -6 425 -9 341 -5 407 -4 407
8 0 27 -69 28 -802 18z"/>
<path d="M8107 5073 c-65 -3 -97 -7 -95 -15 3 -7 69 -11 196 -13 156 -2 192 0
192 11 0 9 -12 14 -32 14 -18 1 -62 2 -98 4 -36 1 -109 1 -163 -1z"/>
<path d="M8600 5016 c0 -19 65 -24 225 -19 121 4 145 7 134 17 -2 2 -84 6
-181 9 -147 5 -178 4 -178 -7z"/>
<path d="M8085 4883 c-98 -5 -175 -15 -175 -22 0 -4 75 -9 168 -9 92 -1 187
-3 211 -4 48 -3 70 17 29 26 -29 7 -167 12 -233 9z"/>
</g>
</svg>
