<?xml version="1.0" standalone="no"?>
<!DOCTYPE svg PUBLIC "-//W3C//DTD SVG 20010904//EN"
 "http://www.w3.org/TR/2001/REC-SVG-20010904/DTD/svg10.dtd">
<svg version="1.0" xmlns="http://www.w3.org/2000/svg"
 width="1500.000000pt" height="1500.000000pt" viewBox="0 0 1500.000000 1500.000000"
 preserveAspectRatio="xMidYMid meet">

<g transform="translate(0.000000,1500.000000) scale(0.100000,-0.100000)"
fill="#000000" stroke="none">
<path d="M2635 14843 c-301 -36 -536 -94 -770 -190 -354 -145 -646 -341 -920
-617 -409 -411 -664 -911 -767 -1501 l-23 -130 0 -4910 0 -4910 23 -129 c51
-289 122 -514 241 -761 128 -265 267 -470 453 -670 492 -528 1110 -828 1822
-885 179 -14 9474 -14 9641 0 445 39 859 175 1230 408 448 280 793 661 1020
1127 139 284 210 518 262 861 17 114 18 339 18 4944 0 3941 -2 4844 -13 4930
-81 644 -345 1185 -796 1635 -245 244 -447 389 -751 536 -246 120 -453 184
-795 247 -76 14 -586 16 -4965 17 -2684 1 -4893 0 -4910 -2z m7324 -3689 c213
-52 392 -231 445 -445 18 -75 21 -204 5 -281 -42 -207 -225 -399 -438 -462
-82 -24 -251 -22 -337 5 -223 67 -381 242 -428 472 -20 95 -20 138 0 235 37
185 160 348 326 433 111 56 296 75 427 43z m398 -1530 c260 -54 476 -220 593
-457 67 -137 83 -215 84 -412 1 -158 -1 -173 -22 -217 -25 -51 -75 -94 -131
-114 -28 -10 -255 -13 -1074 -14 -1132 0 -1066 -3 -1145 57 -20 15 -45 50 -59
80 -25 53 -25 60 -20 226 6 226 34 329 129 474 128 196 327 335 541 377 111
22 998 22 1104 0z m-3897 -629 c454 -76 854 -281 1176 -600 724 -719 839
-1836 276 -2696 l-70 -106 640 -639 c562 -563 642 -646 670 -702 98 -198 -43
-432 -263 -432 -139 0 -92 -40 -820 687 l-657 655 -103 -68 c-269 -178 -566
-290 -894 -339 -146 -22 -441 -22 -590 0 -857 126 -1562 755 -1773 1580 -166
648 -35 1304 367 1839 346 460 895 770 1476 836 118 13 453 4 565 -15z"/>
<path d="M6040 8410 c-420 -65 -651 -512 -463 -893 51 -102 172 -222 274 -270
155 -74 303 -84 466 -32 181 57 330 206 395 394 34 97 33 276 -1 380 -46 141
-164 282 -290 349 -117 63 -262 90 -381 72z"/>
<path d="M5580 6866 c-184 -41 -319 -116 -441 -242 -150 -158 -218 -309 -240
-532 -24 -240 5 -347 111 -409 l54 -33 1061 0 1060 0 52 30 c89 51 123 124
123 264 0 304 -82 518 -267 698 -83 81 -171 138 -272 177 -152 58 -183 61
-708 60 -336 -1 -494 -5 -533 -13z"/>
</g>
</svg>
