<?xml version="1.0" standalone="no"?>
<!DOCTYPE svg PUBLIC "-//W3C//DTD SVG 20010904//EN"
 "http://www.w3.org/TR/2001/REC-SVG-20010904/DTD/svg10.dtd">
<svg version="1.0" xmlns="http://www.w3.org/2000/svg"
 width="1500.000000pt" height="1500.000000pt" viewBox="0 0 1500.000000 1500.000000"
 preserveAspectRatio="xMidYMid meet">

<g transform="translate(0.000000,1500.000000) scale(0.100000,-0.100000)"
fill="#000000" stroke="none">
<path d="M248 14846 c-90 -33 -184 -112 -215 -181 -17 -38 -18 -110 -21 -1230
-4 -1182 11 -2404 29 -2476 24 -94 132 -159 264 -159 41 0 1357 173 1413 185
l23 6 -19 -38 c-28 -56 -34 -89 -33 -183 1 -161 81 -388 164 -467 l32 -31 105
24 c58 13 179 33 270 45 763 94 926 128 1472 309 319 105 397 141 480 218 53
50 62 64 69 107 20 126 5 240 -42 304 -16 23 -25 41 -19 41 10 0 852 113 970
130 115 17 151 28 207 65 56 37 105 101 129 167 18 50 27 295 44 1088 13 601
22 821 51 1250 27 385 21 514 -25 574 -56 74 -90 80 -486 91 -183 5 -334 10
-1035 35 -154 5 -301 10 -326 10 l-46 0 -6 -65 c-7 -76 -19 -103 -52 -115 -14
-5 -136 -6 -297 -1 -230 6 -279 10 -310 25 -42 20 -64 59 -74 134 l-7 52 -51
0 c-28 0 -143 4 -256 10 -113 5 -473 19 -800 30 -327 11 -698 24 -825 30 -126
5 -324 12 -440 15 -116 3 -230 8 -255 10 -25 3 -62 -1 -82 -9z m1127 -356
c1008 -36 1128 -40 1390 -50 143 -5 397 -14 565 -20 350 -12 755 -26 1115 -40
138 -5 419 -14 625 -20 206 -6 390 -13 408 -16 19 -3 38 -15 48 -29 15 -23 15
-43 0 -242 -33 -453 -43 -713 -66 -1778 -13 -562 -10 -543 -86 -558 -21 -4
-394 -54 -829 -112 -434 -58 -807 -108 -827 -111 l-38 -6 0 -92 c0 -51 -5
-108 -11 -126 -9 -26 -9 -34 2 -41 10 -6 9 -8 -6 -7 -11 0 -188 -23 -393 -51
-206 -28 -378 -49 -383 -45 -21 12 -38 65 -50 148 -7 53 -17 90 -25 93 -7 3
-505 -61 -1106 -142 -600 -80 -1102 -144 -1115 -140 -12 3 -27 13 -32 23 -19
36 -31 818 -31 2057 l0 1259 38 39 37 38 110 -6 c61 -3 358 -14 660 -25z m431
-3592 c-26 -87 -28 -110 -16 -149 15 -44 6 -64 -16 -35 -26 36 -12 155 22 189
11 10 14 9 10 -5z m77 -210 c24 -19 18 -33 -10 -24 -27 9 -63 77 -62 117 0 33
1 33 25 -21 14 -30 35 -63 47 -72z"/>
<path d="M4410 10663 c-478 -434 -747 -552 -1323 -583 -106 -5 -464 -11 -797
-12 -603 -3 -605 -3 -695 20 l-90 23 -26 -31 c-15 -17 -34 -54 -43 -82 -19
-60 -41 -298 -41 -450 0 -93 3 -110 21 -135 35 -46 79 -66 158 -69 39 -2 219
-11 400 -20 624 -32 951 -3 1341 116 208 63 227 72 230 107 7 89 84 187 187
238 l69 34 31 -28 31 -28 -49 -23 c-99 -48 -231 -210 -222 -272 4 -31 29 -29
44 2 70 153 120 219 197 260 l45 24 35 -27 36 -27 52 30 c150 89 286 205 353
303 85 124 176 501 164 679 l-3 47 -105 -96z m-2864 -670 c-24 -79 -37 -152
-43 -231 -7 -108 -23 -104 -23 5 0 65 18 180 35 226 4 9 14 17 22 17 9 0 12
-6 9 -17z m75 -84 c-29 -94 -41 -184 -34 -252 5 -49 4 -59 -8 -55 -21 7 -24
154 -4 230 17 68 53 154 60 146 3 -3 -4 -34 -14 -69z m2099 -28 l34 -28 -39
-21 c-83 -42 -141 -118 -175 -231 l-16 -55 -42 38 c-50 46 -54 74 -17 146 32
64 79 117 134 152 56 35 78 35 121 -1z"/>
<path d="M10725 4285 c-238 -52 -406 -202 -513 -455 -33 -79 -70 -220 -78
-299 l-6 -68 110 -97 c80 -70 112 -105 117 -126 5 -25 12 -30 35 -30 22 0 299
-236 1496 -1276 965 -839 1472 -1285 1478 -1303 10 -30 24 -41 42 -34 7 3 113
-82 236 -189 123 -107 228 -197 235 -201 6 -4 0 13 -14 38 -65 117 -70 271
-17 555 22 120 82 229 178 326 128 127 276 203 434 223 86 11 177 2 240 -25
19 -8 37 -13 39 -11 2 2 -77 66 -176 143 -162 126 -178 141 -174 165 5 28 -13
39 -69 39 -15 0 -37 10 -50 23 -13 12 -701 555 -1530 1206 -1000 785 -1508
1190 -1508 1202 0 12 -11 20 -32 24 -18 4 -82 47 -144 96 l-112 89 -79 -1
c-43 0 -105 -7 -138 -14z m363 -222 c-10 -2 -28 -2 -40 0 -13 2 -5 4 17 4 22
1 32 -1 23 -4z m-91 -9 c-3 -3 -12 -4 -19 -1 -8 3 -5 6 6 6 11 1 17 -2 13 -5z
m2883 -2548 c0 -2 -8 -10 -17 -17 -16 -13 -17 -12 -4 4 13 16 21 21 21 13z
m-110 -100 c0 -2 -8 -10 -17 -17 -16 -13 -17 -12 -4 4 13 16 21 21 21 13z
m-333 -713 c-3 -10 -5 -2 -5 17 0 19 2 27 5 18 2 -10 2 -26 0 -35z"/>
</g>
</svg>
